<svg width="371" height="40" viewBox="0 0 371 40" fill="none" xmlns="http://www.w3.org/2000/svg">
<g clip-path="url(#clip0_43_11)">
<path d="M185.409 19.1533C190.698 19.1533 194.985 14.8657 194.985 9.57664C194.985 4.28761 190.698 0 185.409 0C180.12 0 175.832 4.28761 175.832 9.57664C175.832 14.8657 180.12 19.1533 185.409 19.1533Z" fill="url(#paint0_linear_43_11)"/>
<path d="M185.409 39.9996C192.854 39.9996 198.89 33.9637 198.89 26.5179C198.89 19.0721 192.854 13.0361 185.409 13.0361C177.963 13.0361 171.927 19.0721 171.927 26.5179C171.927 33.9637 177.963 39.9996 185.409 39.9996Z" fill="url(#paint1_linear_43_11)"/>
<path d="M185.408 28.7368C188.996 28.7368 191.905 25.8283 191.905 22.2405C191.905 18.6527 188.996 15.7441 185.408 15.7441C181.821 15.7441 178.912 18.6527 178.912 22.2405C178.912 25.8283 181.821 28.7368 185.408 28.7368Z" fill="url(#paint2_radial_43_11)"/>
<path d="M264.701 19.0443C261.117 18.0224 258.978 17.1902 258.978 14.9859C258.978 12.5917 261.438 11.3362 264.409 11.3362C268.278 11.3362 270.197 12.9348 270.197 12.9348L270.964 11.7523C270.964 11.7523 269.015 9.99316 264.394 9.99316C260.307 9.99316 257.526 11.8107 257.526 15.0078C257.526 18.2048 260.27 19.2267 264.204 20.38C267.854 21.4019 269.956 22.3581 269.956 24.7596C269.956 27.1611 268.197 28.6574 264.204 28.6574C262.061 28.737 259.958 28.06 258.263 26.745L257.46 27.8253C257.46 27.8253 259.701 29.9713 264.204 29.9713C269.256 29.9713 271.394 27.7304 271.394 24.7596C271.409 21.5698 268.854 20.1902 264.701 19.0443Z" fill="#ECEAEB"/>
<path d="M289.62 10.416H282.175V29.5912H283.584V23.197H289.562C294.292 23.197 297.138 21.0073 297.138 16.708C297.138 12.5547 294.357 10.416 289.62 10.416ZM289.62 21.8905H282.89L283.62 21.4671V11.7226H289.627C293.277 11.7226 295.766 13.2554 295.766 16.7445C295.73 20.3576 293.27 21.8905 289.591 21.8905H289.62Z" fill="#ECEAEB"/>
<path d="M312.664 10.416L303.46 29.5912H305.022L306.978 25.6277H318.737L320.686 29.5912H322.285L313.051 10.416H312.664ZM318.066 24.2846H307.613L307.84 23.8686L312.73 13.2919H312.949L317.876 23.8394L318.066 24.2846Z" fill="#ECEAEB"/>
<path d="M339.825 11.3284C340.883 11.303 341.937 11.4873 342.924 11.8706C343.911 12.254 344.813 12.8288 345.577 13.562L346.38 12.5109C346.38 12.5109 344.234 9.98535 339.81 9.98535C333.971 9.98535 329.869 14.3284 329.869 20.051C329.829 21.3686 330.059 22.6803 330.545 23.9058C331.03 25.1313 331.761 26.2449 332.691 27.1783C333.622 28.1117 334.733 28.8453 335.957 29.3343C337.182 29.8232 338.493 30.0572 339.81 30.0218C344.19 30.0218 346.38 27.4671 346.38 27.4671L345.577 26.3795C344.82 27.1279 343.922 27.717 342.934 28.1119C341.946 28.5068 340.889 28.6996 339.825 28.6788C338.695 28.6899 337.574 28.4734 336.53 28.0421C335.485 27.6108 334.538 26.9735 333.745 26.1683C332.952 25.3632 332.33 24.4066 331.914 23.3556C331.499 22.3046 331.3 21.1807 331.328 20.051C331.328 15.3211 334.774 11.3284 339.825 11.3284Z" fill="#ECEAEB"/>
<path d="M358.168 19.0438L357.445 19.4598H368.942V20.7664H358.168V27.8613L357.445 28.2773H370.416V29.5912H356.767V10.416H370.416V11.7226H358.168V19.0438Z" fill="#ECEAEB"/>
<path d="M0.583984 11.9199H7.54749V29.7885H8.95625V11.9199H15.9271V10.6133H0.583984V11.9199Z" fill="#ECEAEB"/>
<path d="M38.1754 10.6133H36.7666V29.7885H38.1754V10.6133Z" fill="#ECEAEB"/>
<path d="M69.1241 20.4235L60.4672 10.6133H60.0146V29.7885H61.4234V13.8688L68.8979 22.2483H69.3504L76.8614 13.8104V29.7885H78.2628V10.6133H77.8176L69.1241 20.4235Z" fill="#ECEAEB"/>
<path d="M101.277 19.241L100.555 19.6571H112.051V20.9636H101.277V28.0585L100.555 28.4746H113.518V29.7885H99.876V10.6133H113.518V11.9199H101.277V19.241Z" fill="#ECEAEB"/>
</g>
<defs>
<linearGradient id="paint0_linear_43_11" x1="185.409" y1="19.1606" x2="185.409" y2="0" gradientUnits="userSpaceOnUse">
<stop stop-color="#ECEAEB" stop-opacity="0.9"/>
<stop offset="0.2" stop-color="#ECEAEB"/>
<stop offset="0.48" stop-color="#9E9D9E" stop-opacity="0.61"/>
<stop offset="0.73" stop-color="#5C5C5C" stop-opacity="0.28"/>
<stop offset="0.91" stop-color="#343434" stop-opacity="0.08"/>
<stop offset="1" stop-color="#242424" stop-opacity="0"/>
</linearGradient>
<linearGradient id="paint1_linear_43_11" x1="185.409" y1="39.9996" x2="185.409" y2="13.0288" gradientUnits="userSpaceOnUse">
<stop stop-color="#ECEAEB" stop-opacity="0.9"/>
<stop offset="0.06" stop-color="#DCDADB" stop-opacity="0.82"/>
<stop offset="0.18" stop-color="#B2B1B1" stop-opacity="0.62"/>
<stop offset="0.36" stop-color="#6F6F6F" stop-opacity="0.29"/>
<stop offset="0.5" stop-color="#333333" stop-opacity="0"/>
<stop offset="0.64" stop-color="#6F6F6F" stop-opacity="0.29"/>
<stop offset="0.82" stop-color="#B2B1B1" stop-opacity="0.62"/>
<stop offset="0.94" stop-color="#DCDADB" stop-opacity="0.82"/>
<stop offset="1" stop-color="#ECEAEB" stop-opacity="0.9"/>
</linearGradient>
<radialGradient id="paint2_radial_43_11" cx="0" cy="0" r="1" gradientUnits="userSpaceOnUse" gradientTransform="translate(185.408 22.2332) rotate(180) scale(6.49635)">
<stop stop-color="#ECEAEB" stop-opacity="0.8"/>
<stop offset="0.11" stop-color="#EAE9EA" stop-opacity="0.76"/>
<stop offset="0.28" stop-color="#E6E5E6" stop-opacity="0.66"/>
<stop offset="0.5" stop-color="#E0DEDF" stop-opacity="0.49"/>
<stop offset="0.75" stop-color="#D6D6D6" stop-opacity="0.26"/>
<stop offset="1" stop-color="#CCCCCC" stop-opacity="0"/>
</radialGradient>
<clipPath id="clip0_43_11">
<rect width="369.832" height="40" fill="white" transform="translate(0.583984)"/>
</clipPath>
</defs>
</svg>
