
<svg width="340" height="38" viewBox="0 0 340 38" fill="none" xmlns="http://www.w3.org/2000/svg">
<g clip-path="url(#clip0_43_31)">
<path d="M169.915 18.2168C174.778 18.2168 178.72 14.2508 178.72 9.35839C178.72 4.46604 174.778 0.5 169.915 0.5C165.053 0.5 161.111 4.46604 161.111 9.35839C161.111 14.2508 165.053 18.2168 169.915 18.2168Z" fill="url(#paint0_linear_43_31)"/>
<path d="M169.916 37.4998C176.761 37.4998 182.31 31.9165 182.31 25.0292C182.31 18.1419 176.761 12.5586 169.916 12.5586C163.071 12.5586 157.521 18.1419 157.521 25.0292C157.521 31.9165 163.071 37.4998 169.916 37.4998Z" fill="url(#paint1_linear_43_31)"/>
<path d="M169.916 27.0817C173.214 27.0817 175.888 24.3913 175.888 21.0726C175.888 17.7539 173.214 15.0635 169.916 15.0635C166.617 15.0635 163.943 17.7539 163.943 21.0726C163.943 24.3913 166.617 27.0817 169.916 27.0817Z" fill="url(#paint2_radial_43_31)"/>
<path d="M242.811 18.1154C239.516 17.1702 237.55 16.4005 237.55 14.3614C237.55 12.1468 239.812 10.9855 242.543 10.9855C246.099 10.9855 247.864 12.4641 247.864 12.4641L248.569 11.3704C248.569 11.3704 246.777 9.74316 242.529 9.74316C238.771 9.74316 236.215 11.4244 236.215 14.3817C236.215 17.339 238.738 18.2842 242.355 19.351C245.71 20.2963 247.643 21.1808 247.643 23.4021C247.643 25.6235 246.025 27.0076 242.355 27.0076C240.384 27.0812 238.45 26.455 236.892 25.2386L236.154 26.2379C236.154 26.2379 238.214 28.2229 242.355 28.2229C246.998 28.2229 248.965 26.1501 248.965 23.4021C248.978 20.4516 246.629 19.1755 242.811 18.1154Z" fill="#ECEAEB"/>
<path d="M265.722 10.1348H258.877V27.8718H260.172V21.9572H265.668C270.016 21.9572 272.633 19.9317 272.633 15.9548C272.633 12.113 270.077 10.1348 265.722 10.1348ZM265.722 20.7486H259.535L260.206 20.357V11.3433H265.728C269.084 11.3433 271.372 12.7612 271.372 15.9886C271.338 19.3308 269.077 20.7486 265.695 20.7486H265.722Z" fill="#ECEAEB"/>
<path d="M286.907 10.1348L278.445 27.8718H279.881L281.68 24.2056H292.49L294.282 27.8718H295.752L287.263 10.1348H286.907ZM291.873 22.9632H282.264L282.472 22.5784L286.968 12.795H287.169L291.699 22.5514L291.873 22.9632Z" fill="#ECEAEB"/>
<path d="M311.876 10.9787C312.849 10.9552 313.817 11.1256 314.725 11.4802C315.632 11.8348 316.461 12.3665 317.164 13.0447L317.902 12.0725C317.902 12.0725 315.929 9.73633 311.862 9.73633C306.494 9.73633 302.723 13.7537 302.723 19.0471C302.687 20.2658 302.898 21.4791 303.344 22.6127C303.791 23.7463 304.462 24.7764 305.318 25.6398C306.173 26.5032 307.195 27.1818 308.32 27.6341C309.446 28.0864 310.651 28.3028 311.862 28.2701C315.889 28.2701 317.902 25.9069 317.902 25.9069L317.164 24.9009C316.468 25.5932 315.642 26.1381 314.734 26.5034C313.826 26.8687 312.854 27.047 311.876 27.0278C310.837 27.0381 309.807 26.8378 308.847 26.4388C307.886 26.0398 307.016 25.4504 306.287 24.7056C305.558 23.9608 304.985 23.076 304.604 22.1038C304.222 21.1316 304.039 20.0921 304.065 19.0471C304.065 14.6719 307.232 10.9787 311.876 10.9787Z" fill="#ECEAEB"/>
<path d="M328.74 18.1154L328.075 18.5003H338.644V19.7089H328.74V26.2716L328.075 26.6565H340V27.8718H327.451V10.1348H340V11.3433H328.74V18.1154Z" fill="#ECEAEB"/>
<path d="M0 11.526H6.4018V28.0544H7.69692V11.526H14.1054V10.3174H0V11.526Z" fill="#ECEAEB"/>
<path d="M34.5588 10.3174H33.2637V28.0544H34.5588V10.3174Z" fill="#ECEAEB"/>
<path d="M63.0114 19.3918L55.0528 10.3174H54.6367V28.0544H55.9318V13.3287L62.8034 21.0798H63.2194L70.1245 13.2747V28.0544H71.4129V10.3174H71.0036L63.0114 19.3918Z" fill="#ECEAEB"/>
<path d="M92.5716 18.298L91.9073 18.6829H102.476V19.8915H92.5716V26.4542L91.9073 26.8391H103.825V28.0544H91.2832V10.3174H103.825V11.526H92.5716V18.298Z" fill="#ECEAEB"/>
</g>
<defs>
<linearGradient id="paint0_linear_43_31" x1="169.915" y1="18.2235" x2="169.915" y2="0.5" gradientUnits="userSpaceOnUse">
<stop stop-color="#ECEAEB" stop-opacity="0.9"/>
<stop offset="0.2" stop-color="#ECEAEB"/>
<stop offset="0.48" stop-color="#9E9D9E" stop-opacity="0.61"/>
<stop offset="0.73" stop-color="#5C5C5C" stop-opacity="0.28"/>
<stop offset="0.91" stop-color="#343434" stop-opacity="0.08"/>
<stop offset="1" stop-color="#242424" stop-opacity="0"/>
</linearGradient>
<linearGradient id="paint1_linear_43_31" x1="169.916" y1="37.4998" x2="169.916" y2="12.5518" gradientUnits="userSpaceOnUse">
<stop stop-color="#ECEAEB" stop-opacity="0.9"/>
<stop offset="0.06" stop-color="#DCDADB" stop-opacity="0.82"/>
<stop offset="0.18" stop-color="#B2B1B1" stop-opacity="0.62"/>
<stop offset="0.36" stop-color="#6F6F6F" stop-opacity="0.29"/>
<stop offset="0.5" stop-color="#333333" stop-opacity="0"/>
<stop offset="0.64" stop-color="#6F6F6F" stop-opacity="0.29"/>
<stop offset="0.82" stop-color="#B2B1B1" stop-opacity="0.62"/>
<stop offset="0.94" stop-color="#DCDADB" stop-opacity="0.82"/>
<stop offset="1" stop-color="#ECEAEB" stop-opacity="0.9"/>
</linearGradient>
<radialGradient id="paint2_radial_43_31" cx="0" cy="0" r="1" gradientUnits="userSpaceOnUse" gradientTransform="translate(169.916 21.0658) rotate(180) scale(5.97233 6.00912)">
<stop stop-color="#ECEAEB" stop-opacity="0.8"/>
<stop offset="0.11" stop-color="#EAE9EA" stop-opacity="0.76"/>
<stop offset="0.28" stop-color="#E6E5E6" stop-opacity="0.66"/>
<stop offset="0.5" stop-color="#E0DEDF" stop-opacity="0.49"/>
<stop offset="0.75" stop-color="#D6D6D6" stop-opacity="0.26"/>
<stop offset="1" stop-color="#CCCCCC" stop-opacity="0"/>
</radialGradient>
<clipPath id="clip0_43_31">
<rect width="340" height="37" fill="white" transform="translate(0 0.5)"/>
</clipPath>
</defs>
</svg>
