<svg width="220" height="24" viewBox="0 0 220 24" fill="none" xmlns="http://www.w3.org/2000/svg">
<g clip-path="url(#clip0_43_229)">
<path d="M109.945 11.492C113.091 11.492 115.642 8.91941 115.642 5.74599C115.642 2.57257 113.091 0 109.945 0C106.799 0 104.248 2.57257 104.248 5.74599C104.248 8.91941 106.799 11.492 109.945 11.492Z" fill="url(#paint0_linear_43_229)"/>
<path d="M109.946 23.9999C114.375 23.9999 117.965 20.3783 117.965 15.9108C117.965 11.4434 114.375 7.82178 109.946 7.82178C105.516 7.82178 101.926 11.4434 101.926 15.9108C101.926 20.3783 105.516 23.9999 109.946 23.9999Z" fill="url(#paint1_linear_43_229)"/>
<path d="M109.946 17.2424C112.081 17.2424 113.811 15.4973 113.811 13.3446C113.811 11.1919 112.081 9.44678 109.946 9.44678C107.812 9.44678 106.082 11.1919 106.082 13.3446C106.082 15.4973 107.812 17.2424 109.946 17.2424Z" fill="url(#paint2_radial_43_229)"/>
<path d="M157.114 11.4263C154.982 10.8131 153.71 10.3139 153.71 8.99122C153.71 7.55473 155.173 6.80144 156.94 6.80144C159.242 6.80144 160.384 7.76057 160.384 7.76057L160.84 7.05108C160.84 7.05108 159.68 5.99561 156.932 5.99561C154.5 5.99561 152.846 7.08611 152.846 9.00436C152.846 10.9226 154.478 11.5358 156.819 12.2277C158.99 12.8409 160.24 13.4146 160.24 14.8555C160.24 16.2963 159.194 17.1942 156.819 17.1942C155.544 17.2419 154.292 16.8357 153.284 16.0467L152.807 16.6949C152.807 16.6949 154.14 17.9825 156.819 17.9825C159.823 17.9825 161.096 16.6379 161.096 14.8555C161.104 12.9416 159.585 12.1139 157.114 11.4263Z" fill="#ECEAEB"/>
<path d="M171.937 6.24951H167.508V17.7546H168.346V13.9181H171.902C174.716 13.9181 176.409 12.6043 176.409 10.0247C176.409 7.53272 174.755 6.24951 171.937 6.24951ZM171.937 13.1342H167.933L168.368 12.8802V7.03345H171.941C174.112 7.03345 175.593 7.95316 175.593 10.0466C175.571 12.2145 174.108 13.1342 171.919 13.1342H171.937Z" fill="#ECEAEB"/>
<path d="M185.645 6.24951L180.17 17.7546H181.099L182.263 15.3765H189.258L190.417 17.7546H191.368L185.875 6.24951H185.645ZM188.858 14.5707H182.641L182.775 14.321L185.684 7.97506H185.815L188.746 14.3035L188.858 14.5707Z" fill="#ECEAEB"/>
<path d="M201.802 6.79705C202.432 6.78181 203.058 6.89237 203.646 7.12238C204.233 7.35238 204.769 7.69727 205.224 8.13719L205.701 7.50654C205.701 7.50654 204.425 5.99121 201.793 5.99121C198.32 5.99121 195.88 8.59705 195.88 12.0306C195.856 12.8212 195.993 13.6082 196.282 14.3435C196.571 15.0788 197.005 15.7469 197.559 16.307C198.112 16.867 198.773 17.3072 199.502 17.6006C200.23 17.8939 201.01 18.0343 201.793 18.0131C204.399 18.0131 205.701 16.4803 205.701 16.4803L205.224 15.8277C204.774 16.2767 204.239 16.6302 203.652 16.8671C203.064 17.1041 202.435 17.2198 201.802 17.2073C201.13 17.214 200.463 17.084 199.842 16.8252C199.221 16.5665 198.657 16.1841 198.186 15.701C197.714 15.2179 197.344 14.6439 197.097 14.0134C196.85 13.3828 196.731 12.7084 196.748 12.0306C196.748 9.19267 198.797 6.79705 201.802 6.79705Z" fill="#ECEAEB"/>
<path d="M212.715 11.4262L212.285 11.6758H219.123V12.4597H212.715V16.7167L212.285 16.9663H220.001V17.7546H211.881V6.24951H220.001V7.03345H212.715V11.4262Z" fill="#ECEAEB"/>
<path d="M0 7.15162H4.14234V17.8728H4.98036V7.15162H9.12705V6.36768H0V7.15162Z" fill="#ECEAEB"/>
<path d="M22.3615 6.36768H21.5234V17.8728H22.3615V6.36768Z" fill="#ECEAEB"/>
<path d="M40.7724 12.2538L35.6227 6.36768H35.3535V17.8728H36.1915V8.32096L40.6378 13.3487H40.907L45.375 8.28592V17.8728H46.2087V6.36768H45.9438L40.7724 12.2538Z" fill="#ECEAEB"/>
<path d="M59.8981 11.5443L59.4683 11.794H66.307V12.5779H59.8981V16.8348L59.4683 17.0845H67.1798V17.8728H59.0645V6.36768H67.1798V7.15162H59.8981V11.5443Z" fill="#ECEAEB"/>
</g>
<defs>
<linearGradient id="paint0_linear_43_229" x1="109.945" y1="11.4964" x2="109.945" y2="0" gradientUnits="userSpaceOnUse">
<stop stop-color="#ECEAEB" stop-opacity="0.9"/>
<stop offset="0.2" stop-color="#ECEAEB"/>
<stop offset="0.48" stop-color="#9E9D9E" stop-opacity="0.61"/>
<stop offset="0.73" stop-color="#5C5C5C" stop-opacity="0.28"/>
<stop offset="0.91" stop-color="#343434" stop-opacity="0.08"/>
<stop offset="1" stop-color="#242424" stop-opacity="0"/>
</linearGradient>
<linearGradient id="paint1_linear_43_229" x1="109.946" y1="23.9999" x2="109.946" y2="7.8174" gradientUnits="userSpaceOnUse">
<stop stop-color="#ECEAEB" stop-opacity="0.9"/>
<stop offset="0.06" stop-color="#DCDADB" stop-opacity="0.82"/>
<stop offset="0.18" stop-color="#B2B1B1" stop-opacity="0.62"/>
<stop offset="0.36" stop-color="#6F6F6F" stop-opacity="0.29"/>
<stop offset="0.5" stop-color="#333333" stop-opacity="0"/>
<stop offset="0.64" stop-color="#6F6F6F" stop-opacity="0.29"/>
<stop offset="0.82" stop-color="#B2B1B1" stop-opacity="0.62"/>
<stop offset="0.94" stop-color="#DCDADB" stop-opacity="0.82"/>
<stop offset="1" stop-color="#ECEAEB" stop-opacity="0.9"/>
</linearGradient>
<radialGradient id="paint2_radial_43_229" cx="0" cy="0" r="1" gradientUnits="userSpaceOnUse" gradientTransform="translate(109.946 13.3402) rotate(180) scale(3.86444 3.89781)">
<stop stop-color="#ECEAEB" stop-opacity="0.8"/>
<stop offset="0.11" stop-color="#EAE9EA" stop-opacity="0.76"/>
<stop offset="0.28" stop-color="#E6E5E6" stop-opacity="0.66"/>
<stop offset="0.5" stop-color="#E0DEDF" stop-opacity="0.49"/>
<stop offset="0.75" stop-color="#D6D6D6" stop-opacity="0.26"/>
<stop offset="1" stop-color="#CCCCCC" stop-opacity="0"/>
</radialGradient>
<clipPath id="clip0_43_229">
<rect width="220" height="24" fill="white"/>
</clipPath>
</defs>
</svg>
